<?xml version="1.0" encoding="UTF-8" standalone="no"?>
<!DOCTYPE svg PUBLIC "-//W3C//DTD SVG 1.1//EN" "http://www.w3.org/Graphics/SVG/1.1/DTD/svg11.dtd">
<svg width="100%" height="100%" viewBox="0 0 504 491" version="1.1" xmlns="http://www.w3.org/2000/svg" xmlns:xlink="http://www.w3.org/1999/xlink" xml:space="preserve" xmlns:serif="http://www.serif.com/" style="fill-rule:evenodd;clip-rule:evenodd;stroke-linejoin:round;stroke-miterlimit:2;">
    <g transform="matrix(1,0,0,1,-1209.25,-1176.86)">
        <g transform="matrix(4.16667,0,0,4.16667,0,0)">
            <path d="M350.609,282.446C317.262,282.446 290.221,309.481 290.221,342.833C290.221,369.514 307.524,392.15 331.518,400.135C334.536,400.694 335.644,398.825 335.644,397.23C335.644,395.79 335.588,391.033 335.562,385.987C318.762,389.64 315.217,378.862 315.217,378.862C312.47,371.882 308.512,370.026 308.512,370.026C303.033,366.278 308.925,366.355 308.925,366.355C314.989,366.78 318.182,372.578 318.182,372.578C323.568,381.81 332.309,379.141 335.755,377.598C336.297,373.696 337.862,371.03 339.589,369.523C326.176,367.996 312.076,362.818 312.076,339.679C312.076,333.086 314.435,327.699 318.298,323.47C317.671,321.948 315.604,315.807 318.883,307.489C318.883,307.489 323.954,305.866 335.494,313.679C340.311,312.341 345.477,311.67 350.609,311.647C355.741,311.67 360.911,312.341 365.737,313.679C377.263,305.866 382.327,307.489 382.327,307.489C385.614,315.807 383.546,321.948 382.919,323.47C386.791,327.699 389.134,333.086 389.134,339.679C389.134,362.873 375.007,367.98 361.56,369.475C363.726,371.349 365.656,375.024 365.656,380.658C365.656,388.737 365.586,395.24 365.586,397.23C365.586,398.837 366.673,400.72 369.734,400.127C393.715,392.133 410.996,369.505 410.996,342.833C410.996,309.481 383.959,282.446 350.609,282.446Z" style="fill:white;"/>
        </g>
        <g transform="matrix(4.16667,0,0,4.16667,0,0)">
            <path d="M313.093,369.149C312.96,369.45 312.488,369.539 312.058,369.333C311.62,369.136 311.374,368.727 311.516,368.426C311.646,368.117 312.119,368.032 312.556,368.237C312.995,368.435 313.245,368.848 313.093,369.149Z" style="fill:white;fill-rule:nonzero;"/>
        </g>
        <g transform="matrix(4.16667,0,0,4.16667,0,0)">
            <path d="M315.539,371.877C315.251,372.144 314.688,372.02 314.306,371.598C313.911,371.177 313.837,370.614 314.129,370.343C314.426,370.076 314.972,370.201 315.368,370.622C315.763,371.048 315.84,371.607 315.539,371.877Z" style="fill:white;fill-rule:nonzero;"/>
        </g>
        <g transform="matrix(4.16667,0,0,4.16667,0,0)">
            <path d="M317.92,375.355C317.55,375.612 316.945,375.371 316.571,374.834C316.201,374.297 316.201,373.653 316.579,373.395C316.954,373.137 317.55,373.369 317.929,373.902C318.298,374.447 318.298,375.092 317.92,375.355Z" style="fill:white;fill-rule:nonzero;"/>
        </g>
        <g transform="matrix(4.16667,0,0,4.16667,0,0)">
            <path d="M321.182,378.715C320.851,379.08 320.146,378.982 319.63,378.484C319.102,377.997 318.955,377.306 319.287,376.941C319.622,376.575 320.331,376.678 320.851,377.172C321.375,377.658 321.535,378.354 321.182,378.715Z" style="fill:white;fill-rule:nonzero;"/>
        </g>
        <g transform="matrix(4.16667,0,0,4.16667,0,0)">
            <path d="M325.682,380.666C325.536,381.139 324.857,381.354 324.173,381.153C323.49,380.946 323.043,380.392 323.181,379.914C323.323,379.438 324.005,379.214 324.694,379.429C325.376,379.635 325.824,380.185 325.682,380.666Z" style="fill:white;fill-rule:nonzero;"/>
        </g>
        <g transform="matrix(4.16667,0,0,4.16667,0,0)">
            <path d="M330.624,381.028C330.641,381.526 330.061,381.939 329.343,381.947C328.621,381.964 328.037,381.561 328.029,381.071C328.029,380.568 328.596,380.159 329.318,380.147C330.036,380.133 330.624,380.533 330.624,381.028Z" style="fill:white;fill-rule:nonzero;"/>
        </g>
        <g transform="matrix(4.16667,0,0,4.16667,0,0)">
            <path d="M335.223,380.245C335.309,380.731 334.81,381.23 334.097,381.362C333.396,381.491 332.747,381.191 332.658,380.709C332.571,380.211 333.079,379.712 333.779,379.583C334.493,379.459 335.132,379.751 335.223,380.245Z" style="fill:white;fill-rule:nonzero;"/>
        </g>
    </g>
</svg>
